<?xml version="1.0" encoding="utf-8"?>
<!-- Generator: Adobe Illustrator 19.0.0, SVG Export Plug-In . SVG Version: 6.00 Build 0)  -->
<svg version="1.1" id="Layer_1" xmlns="http://www.w3.org/2000/svg" xmlns:xlink="http://www.w3.org/1999/xlink" x="0px" y="0px"
	 viewBox="-287 25 384 512" style="enable-background:new -287 25 384 512;" xml:space="preserve">
<style type="text/css">
	.st0{fill:#0B2049;}
</style>
<path class="st0" d="M71.4,28.2L33,73l-54.4-44.8c-5.7-4.3-13.5-4.3-19.2,0L-95,73l-54.4-44.8c-5.7-4.3-13.5-4.3-19.2,0L-223,73
	l-38.4-44.8C-272,20.3-287,27.8-287,41v480c0,13.2,15,20.7,25.6,12.8L-223,489l54.4,44.8c5.7,4.3,13.5,4.3,19.2,0L-95,489l54.4,44.8
	c5.7,4.3,13.5,4.3,19.2,0L33,489l38.4,44.8C81.9,541.7,97,534.2,97,521V41C97,27.8,82,20.3,71.4,28.2z M33,385c0,4.4-3.6,8-8,8h-240
	c-4.4,0-8-3.6-8-8v-16c0-4.4,3.6-8,8-8H25c4.4,0,8,3.6,8,8V385z M33,289c0,4.4-3.6,8-8,8h-240c-4.4,0-8-3.6-8-8v-16c0-4.4,3.6-8,8-8
	H25c4.4,0,8,3.6,8,8V289z M33,193c0,4.4-3.6,8-8,8h-240c-4.4,0-8-3.6-8-8v-16c0-4.4,3.6-8,8-8H25c4.4,0,8,3.6,8,8V193z"/>
</svg>
